<svg width="91" height="91" viewBox="0 0 91 91" fill="none" xmlns="http://www.w3.org/2000/svg">
                        <circle cx="45.5" cy="45.5" r="45.5" fill="url(#paint0_linear_138_70)"/>
                        <path d="M18.957 17.4414H42.8445V41.3289H18.957V17.4414ZM24.2654 22.7497V36.0206H37.5362V22.7497H24.2654ZM60.0966 22.7497C58.3368 22.7497 56.649 23.4488 55.4047 24.6932C54.1603 25.9376 53.4612 27.6253 53.4612 29.3852C53.4612 31.145 54.1603 32.8327 55.4047 34.0771C56.649 35.3215 58.3368 36.0206 60.0966 36.0206C61.8564 36.0206 63.5442 35.3215 64.7886 34.0771C66.0329 32.8327 66.732 31.145 66.732 29.3852C66.732 27.6253 66.0329 25.9376 64.7886 24.6932C63.5442 23.4488 61.8564 22.7497 60.0966 22.7497ZM48.1529 29.3852C48.1529 27.8167 48.4618 26.2636 49.062 24.8145C49.6623 23.3654 50.542 22.0487 51.6511 20.9396C52.7602 19.8306 54.0769 18.9508 55.5259 18.3506C56.975 17.7503 58.5281 17.4414 60.0966 17.4414C61.6651 17.4414 63.2182 17.7503 64.6673 18.3506C66.1164 18.9508 67.433 19.8306 68.5421 20.9396C69.6512 22.0487 70.531 23.3654 71.1312 24.8145C71.7314 26.2636 72.0404 27.8167 72.0404 29.3852C72.0404 32.5528 70.782 35.5908 68.5421 37.8307C66.3022 40.0705 63.2643 41.3289 60.0966 41.3289C56.9289 41.3289 53.891 40.0705 51.6511 37.8307C49.4112 35.5908 48.1529 32.5528 48.1529 29.3852ZM18.957 46.6372H42.8445V70.5247H18.957V46.6372ZM24.2654 51.9456V65.2164H37.5362V51.9456H24.2654ZM48.1529 46.6372H72.0404V70.5247H48.1529V46.6372ZM53.4612 51.9456V65.2164H66.732V51.9456H53.4612Z" fill="white"/>
                        <defs>
                        <linearGradient id="paint0_linear_138_70" x1="45.5" y1="91" x2="45.5" y2="0" gradientUnits="userSpaceOnUse">
                        <stop stop-color="#8F00FF"/>
                        <stop offset="1" stop-color="#8751B1"/>
                        </linearGradient>
                        </defs>
                        </svg>