<svg width="91" height="91" viewBox="0 0 91 91" fill="none" xmlns="http://www.w3.org/2000/svg">
                        <circle cx="45.5" cy="45.5" r="45.5" fill="url(#paint0_linear_142_99)"/>
                        <g clip-path="url(#clip0_142_99)">
                        <path d="M67.466 19.4161C68.0804 19.8684 68.3318 20.4715 68.2201 21.2254L61.0701 64.65C60.977 65.1966 60.6791 65.6206 60.1763 65.9222C59.9157 66.073 59.6271 66.1484 59.3105 66.1484C59.1057 66.1484 58.8823 66.1012 58.6402 66.007L43.9213 59.9287L35.5982 69.1734C35.2631 69.5692 34.8255 69.7671 34.2855 69.7671C34.0248 69.7671 33.8107 69.7294 33.6431 69.654C33.2894 69.5221 33.0101 69.3006 32.8052 68.9896C32.6004 68.6786 32.498 68.3347 32.498 67.9577V55.1791L19.3152 49.7228C18.6263 49.4589 18.2539 48.9406 18.198 48.1679C18.1422 47.4328 18.4401 46.8768 19.0918 46.4999L65.5668 19.3595C66.2185 18.9637 66.8515 18.9826 67.466 19.4161ZM57.914 61.7946L64.0865 24.3918L24.0353 47.7721L33.4197 51.6452L57.523 33.5799L44.1726 56.1121L57.914 61.7946Z" fill="white"/>
                        </g>
                        <defs>
                        <linearGradient id="paint0_linear_142_99" x1="45.5" y1="91" x2="45.5" y2="0" gradientUnits="userSpaceOnUse">
                        <stop stop-color="#8F00FF"/>
                        <stop offset="1" stop-color="#8751B1"/>
                        </linearGradient>
                        <clipPath id="clip0_142_99">
                        <rect width="50.05" height="51.5667" fill="white" transform="translate(18.1992 18.2002)"/>
                        </clipPath>
                        </defs>
                        </svg>