<svg width="91" height="91" viewBox="0 0 91 91" fill="none" xmlns="http://www.w3.org/2000/svg">
                        <circle cx="45.5" cy="45.5" r="45.5" fill="url(#paint0_linear_138_74)"/>
                        <path d="M50.6281 78.6718H39.8219C38.3889 78.6718 37.0146 78.1824 36.0013 77.3113C34.988 76.4403 34.4187 75.2588 34.4187 74.027V57.7702C32.9858 57.7702 31.6114 57.2808 30.5982 56.4098C29.5849 55.5387 29.0156 54.3573 29.0156 53.1254V39.191C29.0156 37.3432 29.8695 35.5711 31.3894 34.2645C32.9094 32.9579 34.9708 32.2238 37.1203 32.2238H53.3297C55.4792 32.2238 57.5406 32.9579 59.0606 34.2645C60.5805 35.5711 61.4344 37.3432 61.4344 39.191V53.1254C61.4344 54.3573 60.8651 55.5387 59.8518 56.4098C58.8385 57.2808 57.4642 57.7702 56.0312 57.7702V74.027C56.0312 75.2588 55.462 76.4403 54.4487 77.3113C53.4354 78.1824 52.0611 78.6718 50.6281 78.6718ZM37.1203 36.8686C36.7594 36.8481 36.3975 36.8941 36.0589 37.0036C35.7203 37.113 35.4128 37.2834 35.157 37.5033C34.9012 37.7232 34.703 37.9875 34.5757 38.2786C34.4484 38.5696 34.3949 38.8807 34.4187 39.191V53.1254H39.8219V74.027H50.6281V53.1254H56.0312V39.191C56.0551 38.8807 56.0016 38.5696 55.8743 38.2786C55.747 37.9875 55.5488 37.7232 55.293 37.5033C55.0372 37.2834 54.7297 37.113 54.3911 37.0036C54.0525 36.8941 53.6906 36.8481 53.3297 36.8686H37.1203ZM45.225 29.9014C43.0877 29.9014 40.9984 29.3566 39.2214 28.3359C37.4443 27.3151 36.0592 25.8643 35.2413 24.1668C34.4234 22.4694 34.2094 20.6015 34.6264 18.7995C35.0433 16.9975 36.0725 15.3423 37.5838 14.0431C39.0951 12.744 41.0206 11.8592 43.1168 11.5008C45.213 11.1423 47.3858 11.3263 49.3604 12.0294C51.335 12.7325 53.0227 13.9232 54.2101 15.4508C55.3975 16.9785 56.0312 18.7745 56.0312 20.6119C56.0312 23.0756 54.8927 25.4384 52.8662 27.1806C50.8396 28.9227 48.091 29.9014 45.225 29.9014ZM45.225 15.9671C44.1564 15.9671 43.1117 16.2395 42.2232 16.7499C41.3346 17.2602 40.6421 17.9856 40.2332 18.8344C39.8242 19.6831 39.7172 20.617 39.9257 21.518C40.1342 22.419 40.6488 23.2466 41.4044 23.8962C42.1601 24.5458 43.1228 24.9882 44.1709 25.1674C45.219 25.3466 46.3054 25.2546 47.2927 24.9031C48.28 24.5515 49.1238 23.9562 49.7175 23.1924C50.3112 22.4285 50.6281 21.5305 50.6281 20.6119C50.6281 19.38 50.0589 18.1986 49.0456 17.3275C48.0323 16.4564 46.658 15.9671 45.225 15.9671Z" fill="white"/>
                        <defs>
                        <linearGradient id="paint0_linear_138_74" x1="45.5" y1="91" x2="45.5" y2="0" gradientUnits="userSpaceOnUse">
                        <stop offset="0.175" stop-color="#8F00FF"/>
                        <stop offset="0.9999" stop-color="#8751B1"/>
                        </linearGradient>
                        </defs>
                        </svg>